# xmcd
#
# Track frame offsets: 
#        150
#        25361
#        44665
#        55240
#        94508
#        140827
#        173737
#        199941
#        213474
#        232034
#        250718
#        267364
#        298121
#        315704
#
# Disc length: 4629 seconds
#
# Revision: 11
# Processed by: cddbd v1.5.2PL0 Copyright (c) Steve Scherf et al.
# Submitted via: ExactAudioCopy v0.99pb4
#
DISCID=d912130e
DTITLE=Gary Moore - The Best Of The Blues [CD2]
DYEAR=2002
DGENRE=Blues
TTITLE0=Caldonia (Feat. Albert Collins and Albert King)
TTITLE1=You Don't Love Me
TTITLE2=Key To Love
TTITLE3=The Thrill Is Gone (Feat. B.B. King)
TTITLE4=Stormy Monday (Feat. Albert King)
TTITLE5=Cold, Cold Feeling (Feat. Albert Collins)
TTITLE6=Further Up The Road (Feat. Albert Collins)
TTITLE7=The Stumble
TTITLE8=Oh Pretty Woman
TTITLE9=Walking By Myself
TTITLE10=Too Tired (Feat. Albert Collins)
TTITLE11=Still Got The Blues
TTITLE12=All Your Love
TTITLE13=Midnight Blues
EXTD=
EXTT0=
EXTT1=
EXTT2=
EXTT3=
EXTT4=
EXTT5=
EXTT6=
EXTT7=
EXTT8=
EXTT9=
EXTT10=
EXTT11=
EXTT12=
EXTT13=
PLAYORDER=
